<svg id="logo" width="200" height="26" fill="none" xmlns="http://www.w3.org/2000/svg"><g clip-path="url('#a')" fill="#fff"><path d="M158.147 7.656h3.69l-1.637 8.78h6.817l-.689 3.353h-7.613a2.486 2.486 0 0 1-2.418-2.73l1.85-9.403Zm16.998 4.392-1.421 7.73h-3.728l1.562-7.73h3.587Zm-3.466-1.42.607-3.001h3.615l-.227 1.229a2.162 2.162 0 0 1-2.177 1.775l-1.818-.004Zm8.423 2.677h-1.754l.66-3.093h1.683l.508-2.446h3.334l-.493 2.435h3.273l-.145.924c-.235 1.459-1.392 2.17-2.887 2.17h-.71l-.6 3.51h3.085l-.465 2.983h-3.639a2.536 2.536 0 0 1-2.44-1.887 2.532 2.532 0 0 1-.046-1.095l.636-3.501Z"/><path fill-rule="evenodd" clip-rule="evenodd" d="m19.88 15.08 1.68 3.065a1.203 1.203 0 0 1-1.065 1.775H1.204a1.204 1.204 0 0 1-1.065-1.775l1.68-3.065v-4.168a9.019 9.019 0 0 1 6.454-8.646A2.589 2.589 0 0 1 12.55.653c.472.415.776.989.855 1.613a9.02 9.02 0 0 1 6.477 8.646v4.168Zm-14.607-.77-.04-.06a.71.71 0 0 1 .2-.991 9.66 9.66 0 0 1 5.418-1.637 9.679 9.679 0 0 1 5.43 1.644.707.707 0 0 1 .303.733.71.71 0 0 1-.108.258l-.04.06a.707.707 0 0 1-.994.216 8.266 8.266 0 0 0-4.59-1.395 8.288 8.288 0 0 0-4.595 1.396.71.71 0 0 1-.995-.224h.011Zm1.964 3.036-.04-.06a.71.71 0 0 1 .206-.995 6.168 6.168 0 0 1 3.459-1.065 6.156 6.156 0 0 1 3.455 1.065.71.71 0 0 1 .206.994l-.036.06a.733.733 0 0 1-1.026.196 4.615 4.615 0 0 0-2.6-.795 4.616 4.616 0 0 0-2.598.795.73.73 0 0 1-1.037-.195h.01Zm-3.935-6.08-.042-.063a.71.71 0 0 1 .206-.994 13.269 13.269 0 0 1 7.385-2.22c2.626-.009 5.195.76 7.382 2.213a.709.709 0 0 1 .21.994l-.043.064a.71.71 0 0 1-1.008.206 11.757 11.757 0 0 0-6.54-1.967 11.767 11.767 0 0 0-6.545 1.967.71.71 0 0 1-1.005-.2Z"/><path d="M8.23 22.956a2.617 2.617 0 0 1 2.62-2.617 2.617 2.617 0 0 1 1.853 4.47 2.616 2.616 0 0 1-2.855.569 2.617 2.617 0 0 1-1.618-2.422Zm59.742-16.39h-1.04l1.001-3.551h-1.978l-1.001 3.55h-2.84l-2.593 9.282h-9.839l-1.108 3.942h12.783a3.814 3.814 0 0 0 3.721-2.798l2.642-9.474h1.967l1.268-4.506h-1.978l-1.005 3.555Zm21.223-2.127c-.202 2.258-1.21 3.845-3.298 3.845h-6.999l-.085.306-.543 1.967h6.391c2.79 0 4.616 2.073 4.478 4.616-.139 2.542-2.557 4.616-5.11 4.616H72.138l1.004-3.604h9.808l.575-2.042H71.807l1.651-5.859h-2.034l1.083-3.845h2.034l.28-1.002h5.44l-.28 1.002h9.214Zm60.396 2.975.632 4.85h-4.179l-1.065-8.238c2.46.118 4.317 1.133 4.612 3.388Zm-34.127-2.421h-5.447l-1.42 9.782a4.342 4.342 0 0 0 1.048 3.48 4.4 4.4 0 0 0 3.32 1.53 3.996 3.996 0 0 0 3.994-3.43l.061-.415h-3.15l1.594-10.947Z"/><path d="M137.961 15.94h9.661l-.561 3.849H135.99a5.642 5.642 0 0 1-4.261-1.975 5.54 5.54 0 0 1-1.306-4.48l.426-2.7h2.439l.263-1.792h-2.418l.259-3.846h2.723l.228-1.555h5.443l-.227 1.555h3.806c-.206 2.258-1.211 3.846-3.302 3.846h-1.065l-1.037 7.098ZM123.563 5.852l-1.502 10.087h4.992l.71-4.829c.384-2.613-1.424-4.339-4.2-5.258ZM32.06 14.76h-6.57l1.183-4.186h19.07l-.02.238c-.231 2.546-1.45 3.949-3.434 3.949h-4.371l-1.4 5.027h-5.865l1.406-5.027Zm27.7-10.336V4.24h-8.796l-.901 3.274h7.026c1.534 0 2.49-1.098 2.67-3.09Zm-1.463 5.089V9.7c-.181 1.992-1.137 3.089-2.688 3.089h-7.03l.922-3.277h8.796ZM47.165 7.514h-1.977l1.267-4.506h1.978l-1.268 4.506Zm-4.025 0h1.004l1.268-4.506h-1.978l-.355 1.257H28.33l-1.179 4.19h15.723l.267-.941Zm59.729 2.826h.032c.84.1 1.606.53 2.13 1.193a3.083 3.083 0 0 1 .661 2.337 2.858 2.858 0 0 1-2.866 2.485h-1.718l.625-2.198h-3.466l1.222 5.646h-4.45l-1.22-5.646H92.22l-.745-3.845h1.512l-.355-1.627h4.453l.355 1.627h1.505c.604-1.843 2.351-2.301 4.496-1.868l-.572 1.896Zm92.997 9.42h-3.27c-1.672 0-3.345-2.045-2.968-4.094l.309-2.074c.756-2.84 2.599-3.72 4.662-3.72h1.931a3.483 3.483 0 0 1 3.373 2.608c.128.496.145 1.014.05 1.517a2.443 2.443 0 0 1-2.538 2.155h-4.542a.894.894 0 0 0 .207.757.904.904 0 0 0 .72.309h5.248c-.21 1.704-1.605 2.542-3.182 2.542Zm0-7.457h-1.42a1.373 1.373 0 0 0-1.253 1.023l-.085.454h3.873l.039-.205a1.123 1.123 0 0 0-.668-1.197 1.131 1.131 0 0 0-.478-.092l-.008.017Z"/></g><defs><clipPath id="a"><path fill="#fff" d="M0 0h200v25.576H0z"/></clipPath></defs></svg>